<svg width="157" height="64" viewBox="0 0 157 64" fill="none" xmlns="http://www.w3.org/2000/svg">
<path d="M8 38H19C21.2091 38 23 36.2091 23 34V8C23 6.34314 21.6569 5 20 5H11C9.34315 5 8 6.34315 8 8V38Z" fill="#124F48"/>
<path d="M17 13C17 11.3431 15.6569 10 14 10H3C1.34315 10 0 11.3431 0 13V33H15C16.1046 33 17 32.1046 17 31V13Z" fill="#FF823B"/>
<circle cx="5.5" cy="5.5" r="5.5" transform="matrix(1 0 0 -1 3 27)" fill="#124F48"/>
<path d="M41.6934 29.748V19.957C41.6934 19.207 41.541 18.5566 41.2363 18.0059C40.9434 17.4434 40.498 17.0098 39.9004 16.7051C39.3027 16.4004 38.5645 16.248 37.6855 16.248C36.8652 16.248 36.1445 16.3887 35.5234 16.6699C34.9141 16.9512 34.4336 17.3203 34.082 17.7773C33.7422 18.2344 33.5723 18.7266 33.5723 19.2539H30.3203C30.3203 18.5742 30.4961 17.9004 30.8477 17.2324C31.1992 16.5645 31.7031 15.9609 32.3594 15.4219C33.0273 14.8711 33.8242 14.4375 34.75 14.1211C35.6875 13.793 36.7305 13.6289 37.8789 13.6289C39.2617 13.6289 40.4805 13.8633 41.5352 14.332C42.6016 14.8008 43.4336 15.5098 44.0312 16.459C44.6406 17.3965 44.9453 18.5742 44.9453 19.9922V28.8516C44.9453 29.4844 44.998 30.1582 45.1035 30.873C45.2207 31.5879 45.3906 32.2031 45.6133 32.7188V33H42.2207C42.0566 32.625 41.9277 32.127 41.834 31.5059C41.7402 30.873 41.6934 30.2871 41.6934 29.748ZM42.2559 21.4688L42.291 23.7539H39.0039C38.0781 23.7539 37.252 23.8301 36.5254 23.9824C35.7988 24.123 35.1895 24.3398 34.6973 24.6328C34.2051 24.9258 33.8301 25.2949 33.5723 25.7402C33.3145 26.1738 33.1855 26.6836 33.1855 27.2695C33.1855 27.8672 33.3203 28.4121 33.5898 28.9043C33.8594 29.3965 34.2637 29.7891 34.8027 30.082C35.3535 30.3633 36.0273 30.5039 36.8242 30.5039C37.8203 30.5039 38.6992 30.293 39.4609 29.8711C40.2227 29.4492 40.8262 28.9336 41.2715 28.3242C41.7285 27.7148 41.9746 27.123 42.0098 26.5488L43.3984 28.1133C43.3164 28.6055 43.0938 29.1504 42.7305 29.748C42.3672 30.3457 41.8809 30.9199 41.2715 31.4707C40.6738 32.0098 39.959 32.4609 39.127 32.8242C38.3066 33.1758 37.3809 33.3516 36.3496 33.3516C35.0605 33.3516 33.9297 33.0996 32.957 32.5957C31.9961 32.0918 31.2461 31.418 30.707 30.5742C30.1797 29.7188 29.916 28.7637 29.916 27.709C29.916 26.6895 30.1152 25.793 30.5137 25.0195C30.9121 24.2344 31.4863 23.584 32.2363 23.0684C32.9863 22.541 33.8887 22.1426 34.9434 21.873C35.998 21.6035 37.1758 21.4688 38.4766 21.4688H42.2559ZM53.2949 17.7598V33H50.0254V13.9805H53.1191L53.2949 17.7598ZM52.627 22.7695L51.1152 22.7168C51.127 21.416 51.2969 20.2148 51.625 19.1133C51.9531 18 52.4395 17.0332 53.084 16.2129C53.7285 15.3926 54.5312 14.7598 55.4922 14.3145C56.4531 13.8574 57.5664 13.6289 58.832 13.6289C59.7227 13.6289 60.543 13.7578 61.293 14.0156C62.043 14.2617 62.6934 14.6543 63.2441 15.1934C63.7949 15.7324 64.2227 16.4238 64.5273 17.2676C64.832 18.1113 64.9844 19.1309 64.9844 20.3262V33H61.7324V20.4844C61.7324 19.4883 61.5625 18.6914 61.2227 18.0938C60.8945 17.4961 60.4258 17.0625 59.8164 16.793C59.207 16.5117 58.4922 16.3711 57.6719 16.3711C56.7109 16.3711 55.9082 16.541 55.2637 16.8809C54.6191 17.2207 54.1035 17.6895 53.7168 18.2871C53.3301 18.8848 53.0488 19.5703 52.873 20.3438C52.709 21.1055 52.627 21.9141 52.627 22.7695ZM64.9492 20.9766L62.7695 21.6445C62.7812 20.6016 62.9512 19.5996 63.2793 18.6387C63.6191 17.6777 64.1055 16.8223 64.7383 16.0723C65.3828 15.3223 66.1738 14.7305 67.1113 14.2969C68.0488 13.8516 69.1211 13.6289 70.3281 13.6289C71.3477 13.6289 72.25 13.7637 73.0352 14.0332C73.832 14.3027 74.5 14.7188 75.0391 15.2812C75.5898 15.832 76.0059 16.541 76.2871 17.4082C76.5684 18.2754 76.709 19.3066 76.709 20.502V33H73.4395V20.4668C73.4395 19.4004 73.2695 18.5742 72.9297 17.9883C72.6016 17.3906 72.1328 16.9746 71.5234 16.7402C70.9258 16.4941 70.2109 16.3711 69.3789 16.3711C68.6641 16.3711 68.0312 16.4941 67.4805 16.7402C66.9297 16.9863 66.4668 17.3262 66.0918 17.7598C65.7168 18.1816 65.4297 18.668 65.2305 19.2188C65.043 19.7695 64.9492 20.3555 64.9492 20.9766ZM85.1641 13.9805V33H81.8945V13.9805H85.1641ZM81.6484 8.93555C81.6484 8.4082 81.8066 7.96289 82.123 7.59961C82.4512 7.23633 82.9316 7.05469 83.5645 7.05469C84.1855 7.05469 84.6602 7.23633 84.9883 7.59961C85.3281 7.96289 85.498 8.4082 85.498 8.93555C85.498 9.43945 85.3281 9.87305 84.9883 10.2363C84.6602 10.5879 84.1855 10.7637 83.5645 10.7637C82.9316 10.7637 82.4512 10.5879 82.123 10.2363C81.8066 9.87305 81.6484 9.43945 81.6484 8.93555ZM102.373 29.3086V6H105.643V33H102.654L102.373 29.3086ZM89.5762 23.7012V23.332C89.5762 21.8789 89.752 20.5605 90.1035 19.377C90.4668 18.1816 90.9766 17.1562 91.6328 16.3008C92.3008 15.4453 93.0918 14.7891 94.0059 14.332C94.9316 13.8633 95.9629 13.6289 97.0996 13.6289C98.2949 13.6289 99.3379 13.8398 100.229 14.2617C101.131 14.6719 101.893 15.2754 102.514 16.0723C103.146 16.8574 103.645 17.8066 104.008 18.9199C104.371 20.0332 104.623 21.293 104.764 22.6992V24.3164C104.635 25.7109 104.383 26.9648 104.008 28.0781C103.645 29.1914 103.146 30.1406 102.514 30.9258C101.893 31.7109 101.131 32.3145 100.229 32.7363C99.3262 33.1465 98.2715 33.3516 97.0645 33.3516C95.9512 33.3516 94.9316 33.1113 94.0059 32.6309C93.0918 32.1504 92.3008 31.4766 91.6328 30.6094C90.9766 29.7422 90.4668 28.7227 90.1035 27.5508C89.752 26.3672 89.5762 25.084 89.5762 23.7012ZM92.8457 23.332V23.7012C92.8457 24.6504 92.9395 25.541 93.127 26.373C93.3262 27.2051 93.6309 27.9375 94.041 28.5703C94.4512 29.2031 94.9727 29.7012 95.6055 30.0645C96.2383 30.416 96.9941 30.5918 97.873 30.5918C98.9512 30.5918 99.8359 30.3633 100.527 29.9062C101.23 29.4492 101.793 28.8457 102.215 28.0957C102.637 27.3457 102.965 26.5312 103.199 25.6523V21.416C103.059 20.7715 102.854 20.1504 102.584 19.5527C102.326 18.9434 101.986 18.4043 101.564 17.9355C101.154 17.4551 100.645 17.0742 100.035 16.793C99.4375 16.5117 98.7285 16.3711 97.9082 16.3711C97.0176 16.3711 96.25 16.5586 95.6055 16.9336C94.9727 17.2969 94.4512 17.8008 94.041 18.4453C93.6309 19.0781 93.3262 19.8164 93.127 20.6602C92.9395 21.4922 92.8457 22.3828 92.8457 23.332ZM110.758 31.2773C110.758 30.7266 110.928 30.2637 111.268 29.8887C111.619 29.502 112.123 29.3086 112.779 29.3086C113.436 29.3086 113.934 29.502 114.273 29.8887C114.625 30.2637 114.801 30.7266 114.801 31.2773C114.801 31.8164 114.625 32.2734 114.273 32.6484C113.934 33.0234 113.436 33.2109 112.779 33.2109C112.123 33.2109 111.619 33.0234 111.268 32.6484C110.928 32.2734 110.758 31.8164 110.758 31.2773Z" fill="#124F48"/>
<path d="M0.820312 52H1.91016V59.7695L1.81641 61H0.820312V52ZM6.19336 57.7773V57.9004C6.19336 58.3613 6.13867 58.7891 6.0293 59.1836C5.91992 59.5742 5.75977 59.9141 5.54883 60.2031C5.33789 60.4922 5.08008 60.7168 4.77539 60.877C4.4707 61.0371 4.12109 61.1172 3.72656 61.1172C3.32422 61.1172 2.9707 61.0488 2.66602 60.9121C2.36523 60.7715 2.11133 60.5703 1.9043 60.3086C1.69727 60.0469 1.53125 59.7305 1.40625 59.3594C1.28516 58.9883 1.20117 58.5703 1.1543 58.1055V57.5664C1.20117 57.0977 1.28516 56.6777 1.40625 56.3066C1.53125 55.9355 1.69727 55.6191 1.9043 55.3574C2.11133 55.0918 2.36523 54.8906 2.66602 54.7539C2.9668 54.6133 3.31641 54.543 3.71484 54.543C4.11328 54.543 4.4668 54.6211 4.77539 54.7773C5.08398 54.9297 5.3418 55.1484 5.54883 55.4336C5.75977 55.7188 5.91992 56.0605 6.0293 56.459C6.13867 56.8535 6.19336 57.293 6.19336 57.7773ZM5.10352 57.9004V57.7773C5.10352 57.4609 5.07422 57.1641 5.01562 56.8867C4.95703 56.6055 4.86328 56.3594 4.73438 56.1484C4.60547 55.9336 4.43555 55.7656 4.22461 55.6445C4.01367 55.5195 3.75391 55.457 3.44531 55.457C3.17188 55.457 2.93359 55.5039 2.73047 55.5977C2.53125 55.6914 2.36133 55.8184 2.2207 55.9785C2.08008 56.1348 1.96484 56.3145 1.875 56.5176C1.78906 56.7168 1.72461 56.9238 1.68164 57.1387V58.5508C1.74414 58.8242 1.8457 59.0879 1.98633 59.3418C2.13086 59.5918 2.32227 59.7969 2.56055 59.957C2.80273 60.1172 3.10156 60.1973 3.45703 60.1973C3.75 60.1973 4 60.1387 4.20703 60.0215C4.41797 59.9004 4.58789 59.7344 4.7168 59.5234C4.84961 59.3125 4.94727 59.0684 5.00977 58.791C5.07227 58.5137 5.10352 58.2168 5.10352 57.9004ZM11.4434 59.5352V54.6602H12.5332V61H11.4961L11.4434 59.5352ZM11.6484 58.1992L12.0996 58.1875C12.0996 58.6094 12.0547 59 11.9648 59.3594C11.8789 59.7148 11.7383 60.0234 11.543 60.2852C11.3477 60.5469 11.0918 60.752 10.7754 60.9004C10.459 61.0449 10.0742 61.1172 9.62109 61.1172C9.3125 61.1172 9.0293 61.0723 8.77148 60.9824C8.51758 60.8926 8.29883 60.7539 8.11523 60.5664C7.93164 60.3789 7.78906 60.1348 7.6875 59.834C7.58984 59.5332 7.54102 59.1719 7.54102 58.75V54.6602H8.625V58.7617C8.625 59.0469 8.65625 59.2832 8.71875 59.4707C8.78516 59.6543 8.87305 59.8008 8.98242 59.9102C9.0957 60.0156 9.2207 60.0898 9.35742 60.1328C9.49805 60.1758 9.64258 60.1973 9.79102 60.1973C10.252 60.1973 10.6172 60.1094 10.8867 59.9336C11.1562 59.7539 11.3496 59.5137 11.4668 59.2129C11.5879 58.9082 11.6484 58.5703 11.6484 58.1992ZM17.877 59.3184C17.877 59.1621 17.8418 59.0176 17.7715 58.8848C17.7051 58.748 17.5664 58.625 17.3555 58.5156C17.1484 58.4023 16.8359 58.3047 16.418 58.2227C16.0664 58.1484 15.748 58.0605 15.4629 57.959C15.1816 57.8574 14.9414 57.7344 14.7422 57.5898C14.5469 57.4453 14.3965 57.2754 14.291 57.0801C14.1855 56.8848 14.1328 56.6562 14.1328 56.3945C14.1328 56.1445 14.1875 55.9082 14.2969 55.6855C14.4102 55.4629 14.5684 55.2656 14.7715 55.0938C14.9785 54.9219 15.2266 54.7871 15.5156 54.6895C15.8047 54.5918 16.127 54.543 16.4824 54.543C16.9902 54.543 17.4238 54.6328 17.7832 54.8125C18.1426 54.9922 18.418 55.2324 18.6094 55.5332C18.8008 55.8301 18.8965 56.1602 18.8965 56.5234H17.8125C17.8125 56.3477 17.7598 56.1777 17.6543 56.0137C17.5527 55.8457 17.4023 55.707 17.2031 55.5977C17.0078 55.4883 16.7676 55.4336 16.4824 55.4336C16.1816 55.4336 15.9375 55.4805 15.75 55.5742C15.5664 55.6641 15.4316 55.7793 15.3457 55.9199C15.2637 56.0605 15.2227 56.209 15.2227 56.3652C15.2227 56.4824 15.2422 56.5879 15.2812 56.6816C15.3242 56.7715 15.3984 56.8555 15.5039 56.9336C15.6094 57.0078 15.7578 57.0781 15.9492 57.1445C16.1406 57.2109 16.3848 57.2773 16.6816 57.3438C17.2012 57.4609 17.6289 57.6016 17.9648 57.7656C18.3008 57.9297 18.5508 58.1309 18.7148 58.3691C18.8789 58.6074 18.9609 58.8965 18.9609 59.2363C18.9609 59.5137 18.9023 59.7676 18.7852 59.998C18.6719 60.2285 18.5059 60.4277 18.2871 60.5957C18.0723 60.7598 17.8145 60.8887 17.5137 60.9824C17.2168 61.0723 16.8828 61.1172 16.5117 61.1172C15.9531 61.1172 15.4805 61.0176 15.0938 60.8184C14.707 60.6191 14.4141 60.3613 14.2148 60.0449C14.0156 59.7285 13.916 59.3945 13.916 59.043H15.0059C15.0215 59.3398 15.1074 59.5762 15.2637 59.752C15.4199 59.9238 15.6113 60.0469 15.8379 60.1211C16.0645 60.1914 16.2891 60.2266 16.5117 60.2266C16.8086 60.2266 17.0566 60.1875 17.2559 60.1094C17.459 60.0312 17.6133 59.9238 17.7188 59.7871C17.8242 59.6504 17.877 59.4941 17.877 59.3184ZM21.5625 54.6602V61H20.4727V54.6602H21.5625ZM20.3906 52.9785C20.3906 52.8027 20.4434 52.6543 20.5488 52.5332C20.6582 52.4121 20.8184 52.3516 21.0293 52.3516C21.2363 52.3516 21.3945 52.4121 21.5039 52.5332C21.6172 52.6543 21.6738 52.8027 21.6738 52.9785C21.6738 53.1465 21.6172 53.291 21.5039 53.4121C21.3945 53.5293 21.2363 53.5879 21.0293 53.5879C20.8184 53.5879 20.6582 53.5293 20.5488 53.4121C20.4434 53.291 20.3906 53.1465 20.3906 52.9785ZM24.3867 56.0137V61H23.3027V54.6602H24.3281L24.3867 56.0137ZM24.1289 57.5898L23.6777 57.5723C23.6816 57.1387 23.7461 56.7383 23.8711 56.3711C23.9961 56 24.1719 55.6777 24.3984 55.4043C24.625 55.1309 24.8945 54.9199 25.207 54.7715C25.5234 54.6191 25.873 54.543 26.2559 54.543C26.5684 54.543 26.8496 54.5859 27.0996 54.6719C27.3496 54.7539 27.5625 54.8867 27.7383 55.0703C27.918 55.2539 28.0547 55.4922 28.1484 55.7852C28.2422 56.0742 28.2891 56.4277 28.2891 56.8457V61H27.1992V56.834C27.1992 56.502 27.1504 56.2363 27.0527 56.0371C26.9551 55.834 26.8125 55.6875 26.625 55.5977C26.4375 55.5039 26.207 55.457 25.9336 55.457C25.6641 55.457 25.418 55.5137 25.1953 55.627C24.9766 55.7402 24.7871 55.8965 24.627 56.0957C24.4707 56.2949 24.3477 56.5234 24.2578 56.7812C24.1719 57.0352 24.1289 57.3047 24.1289 57.5898ZM32.5664 61.1172C32.125 61.1172 31.7246 61.043 31.3652 60.8945C31.0098 60.7422 30.7031 60.5293 30.4453 60.2559C30.1914 59.9824 29.9961 59.6582 29.8594 59.2832C29.7227 58.9082 29.6543 58.498 29.6543 58.0527V57.8066C29.6543 57.291 29.7305 56.832 29.8828 56.4297C30.0352 56.0234 30.2422 55.6797 30.5039 55.3984C30.7656 55.1172 31.0625 54.9043 31.3945 54.7598C31.7266 54.6152 32.0703 54.543 32.4258 54.543C32.8789 54.543 33.2695 54.6211 33.5977 54.7773C33.9297 54.9336 34.2012 55.1523 34.4121 55.4336C34.623 55.7109 34.7793 56.0391 34.8809 56.418C34.9824 56.793 35.0332 57.2031 35.0332 57.6484V58.1348H30.2988V57.25H33.9492V57.168C33.9336 56.8867 33.875 56.6133 33.7734 56.3477C33.6758 56.082 33.5195 55.8633 33.3047 55.6914C33.0898 55.5195 32.7969 55.4336 32.4258 55.4336C32.1797 55.4336 31.9531 55.4863 31.7461 55.5918C31.5391 55.6934 31.3613 55.8457 31.2129 56.0488C31.0645 56.252 30.9492 56.5 30.8672 56.793C30.7852 57.0859 30.7441 57.4238 30.7441 57.8066V58.0527C30.7441 58.3535 30.7852 58.6367 30.8672 58.9023C30.9531 59.1641 31.0762 59.3945 31.2363 59.5938C31.4004 59.793 31.5977 59.9492 31.8281 60.0625C32.0625 60.1758 32.3281 60.2324 32.625 60.2324C33.0078 60.2324 33.332 60.1543 33.5977 59.998C33.8633 59.8418 34.0957 59.6328 34.2949 59.3711L34.9512 59.8926C34.8145 60.0996 34.6406 60.2969 34.4297 60.4844C34.2188 60.6719 33.959 60.8242 33.6504 60.9414C33.3457 61.0586 32.9844 61.1172 32.5664 61.1172ZM39.9902 59.3184C39.9902 59.1621 39.9551 59.0176 39.8848 58.8848C39.8184 58.748 39.6797 58.625 39.4688 58.5156C39.2617 58.4023 38.9492 58.3047 38.5312 58.2227C38.1797 58.1484 37.8613 58.0605 37.5762 57.959C37.2949 57.8574 37.0547 57.7344 36.8555 57.5898C36.6602 57.4453 36.5098 57.2754 36.4043 57.0801C36.2988 56.8848 36.2461 56.6562 36.2461 56.3945C36.2461 56.1445 36.3008 55.9082 36.4102 55.6855C36.5234 55.4629 36.6816 55.2656 36.8848 55.0938C37.0918 54.9219 37.3398 54.7871 37.6289 54.6895C37.918 54.5918 38.2402 54.543 38.5957 54.543C39.1035 54.543 39.5371 54.6328 39.8965 54.8125C40.2559 54.9922 40.5312 55.2324 40.7227 55.5332C40.9141 55.8301 41.0098 56.1602 41.0098 56.5234H39.9258C39.9258 56.3477 39.873 56.1777 39.7676 56.0137C39.666 55.8457 39.5156 55.707 39.3164 55.5977C39.1211 55.4883 38.8809 55.4336 38.5957 55.4336C38.2949 55.4336 38.0508 55.4805 37.8633 55.5742C37.6797 55.6641 37.5449 55.7793 37.459 55.9199C37.377 56.0605 37.3359 56.209 37.3359 56.3652C37.3359 56.4824 37.3555 56.5879 37.3945 56.6816C37.4375 56.7715 37.5117 56.8555 37.6172 56.9336C37.7227 57.0078 37.8711 57.0781 38.0625 57.1445C38.2539 57.2109 38.498 57.2773 38.7949 57.3438C39.3145 57.4609 39.7422 57.6016 40.0781 57.7656C40.4141 57.9297 40.6641 58.1309 40.8281 58.3691C40.9922 58.6074 41.0742 58.8965 41.0742 59.2363C41.0742 59.5137 41.0156 59.7676 40.8984 59.998C40.7852 60.2285 40.6191 60.4277 40.4004 60.5957C40.1855 60.7598 39.9277 60.8887 39.627 60.9824C39.3301 61.0723 38.9961 61.1172 38.625 61.1172C38.0664 61.1172 37.5938 61.0176 37.207 60.8184C36.8203 60.6191 36.5273 60.3613 36.3281 60.0449C36.1289 59.7285 36.0293 59.3945 36.0293 59.043H37.1191C37.1348 59.3398 37.2207 59.5762 37.377 59.752C37.5332 59.9238 37.7246 60.0469 37.9512 60.1211C38.1777 60.1914 38.4023 60.2266 38.625 60.2266C38.9219 60.2266 39.1699 60.1875 39.3691 60.1094C39.5723 60.0312 39.7266 59.9238 39.832 59.7871C39.9375 59.6504 39.9902 59.4941 39.9902 59.3184ZM46.1895 59.3184C46.1895 59.1621 46.1543 59.0176 46.084 58.8848C46.0176 58.748 45.8789 58.625 45.668 58.5156C45.4609 58.4023 45.1484 58.3047 44.7305 58.2227C44.3789 58.1484 44.0605 58.0605 43.7754 57.959C43.4941 57.8574 43.2539 57.7344 43.0547 57.5898C42.8594 57.4453 42.709 57.2754 42.6035 57.0801C42.498 56.8848 42.4453 56.6562 42.4453 56.3945C42.4453 56.1445 42.5 55.9082 42.6094 55.6855C42.7227 55.4629 42.8809 55.2656 43.084 55.0938C43.291 54.9219 43.5391 54.7871 43.8281 54.6895C44.1172 54.5918 44.4395 54.543 44.7949 54.543C45.3027 54.543 45.7363 54.6328 46.0957 54.8125C46.4551 54.9922 46.7305 55.2324 46.9219 55.5332C47.1133 55.8301 47.209 56.1602 47.209 56.5234H46.125C46.125 56.3477 46.0723 56.1777 45.9668 56.0137C45.8652 55.8457 45.7148 55.707 45.5156 55.5977C45.3203 55.4883 45.0801 55.4336 44.7949 55.4336C44.4941 55.4336 44.25 55.4805 44.0625 55.5742C43.8789 55.6641 43.7441 55.7793 43.6582 55.9199C43.5762 56.0605 43.5352 56.209 43.5352 56.3652C43.5352 56.4824 43.5547 56.5879 43.5938 56.6816C43.6367 56.7715 43.7109 56.8555 43.8164 56.9336C43.9219 57.0078 44.0703 57.0781 44.2617 57.1445C44.4531 57.2109 44.6973 57.2773 44.9941 57.3438C45.5137 57.4609 45.9414 57.6016 46.2773 57.7656C46.6133 57.9297 46.8633 58.1309 47.0273 58.3691C47.1914 58.6074 47.2734 58.8965 47.2734 59.2363C47.2734 59.5137 47.2148 59.7676 47.0977 59.998C46.9844 60.2285 46.8184 60.4277 46.5996 60.5957C46.3848 60.7598 46.127 60.8887 45.8262 60.9824C45.5293 61.0723 45.1953 61.1172 44.8242 61.1172C44.2656 61.1172 43.793 61.0176 43.4062 60.8184C43.0195 60.6191 42.7266 60.3613 42.5273 60.0449C42.3281 59.7285 42.2285 59.3945 42.2285 59.043H43.3184C43.334 59.3398 43.4199 59.5762 43.5762 59.752C43.7324 59.9238 43.9238 60.0469 44.1504 60.1211C44.377 60.1914 44.6016 60.2266 44.8242 60.2266C45.1211 60.2266 45.3691 60.1875 45.5684 60.1094C45.7715 60.0312 45.9258 59.9238 46.0312 59.7871C46.1367 59.6504 46.1895 59.4941 46.1895 59.3184ZM54.2109 60.2266C54.4688 60.2266 54.707 60.1738 54.9258 60.0684C55.1445 59.9629 55.3242 59.8184 55.4648 59.6348C55.6055 59.4473 55.6855 59.2344 55.7051 58.9961H56.7363C56.7168 59.3711 56.5898 59.7207 56.3555 60.0449C56.125 60.3652 55.8223 60.625 55.4473 60.8242C55.0723 61.0195 54.6602 61.1172 54.2109 61.1172C53.7344 61.1172 53.3184 61.0332 52.9629 60.8652C52.6113 60.6973 52.3184 60.4668 52.084 60.1738C51.8535 59.8809 51.6797 59.5449 51.5625 59.166C51.4492 58.7832 51.3926 58.3789 51.3926 57.9531V57.707C51.3926 57.2812 51.4492 56.8789 51.5625 56.5C51.6797 56.1172 51.8535 55.7793 52.084 55.4863C52.3184 55.1934 52.6113 54.9629 52.9629 54.7949C53.3184 54.627 53.7344 54.543 54.2109 54.543C54.707 54.543 55.1406 54.6445 55.5117 54.8477C55.8828 55.0469 56.1738 55.3203 56.3848 55.668C56.5996 56.0117 56.7168 56.4023 56.7363 56.8398H55.7051C55.6855 56.5781 55.6113 56.3418 55.4824 56.1309C55.3574 55.9199 55.1855 55.752 54.9668 55.627C54.752 55.498 54.5 55.4336 54.2109 55.4336C53.8789 55.4336 53.5996 55.5 53.373 55.6328C53.1504 55.7617 52.9727 55.9375 52.8398 56.1602C52.7109 56.3789 52.6172 56.623 52.5586 56.8926C52.5039 57.1582 52.4766 57.4297 52.4766 57.707V57.9531C52.4766 58.2305 52.5039 58.5039 52.5586 58.7734C52.6133 59.043 52.7051 59.2871 52.834 59.5059C52.9668 59.7246 53.1445 59.9004 53.3672 60.0332C53.5938 60.1621 53.875 60.2266 54.2109 60.2266ZM57.668 57.9004V57.7656C57.668 57.3086 57.7344 56.8848 57.8672 56.4941C58 56.0996 58.1914 55.7578 58.4414 55.4688C58.6914 55.1758 58.9941 54.9492 59.3496 54.7891C59.7051 54.625 60.1035 54.543 60.5449 54.543C60.9902 54.543 61.3906 54.625 61.7461 54.7891C62.1055 54.9492 62.4102 55.1758 62.6602 55.4688C62.9141 55.7578 63.1074 56.0996 63.2402 56.4941C63.373 56.8848 63.4395 57.3086 63.4395 57.7656V57.9004C63.4395 58.3574 63.373 58.7812 63.2402 59.1719C63.1074 59.5625 62.9141 59.9043 62.6602 60.1973C62.4102 60.4863 62.1074 60.7129 61.752 60.877C61.4004 61.0371 61.002 61.1172 60.5566 61.1172C60.1113 61.1172 59.7109 61.0371 59.3555 60.877C59 60.7129 58.6953 60.4863 58.4414 60.1973C58.1914 59.9043 58 59.5625 57.8672 59.1719C57.7344 58.7812 57.668 58.3574 57.668 57.9004ZM58.752 57.7656V57.9004C58.752 58.2168 58.7891 58.5156 58.8633 58.7969C58.9375 59.0742 59.0488 59.3203 59.1973 59.5352C59.3496 59.75 59.5391 59.9199 59.7656 60.0449C59.9922 60.166 60.2559 60.2266 60.5566 60.2266C60.8535 60.2266 61.1133 60.166 61.3359 60.0449C61.5625 59.9199 61.75 59.75 61.8984 59.5352C62.0469 59.3203 62.1582 59.0742 62.2324 58.7969C62.3105 58.5156 62.3496 58.2168 62.3496 57.9004V57.7656C62.3496 57.4531 62.3105 57.1582 62.2324 56.8809C62.1582 56.5996 62.0449 56.3516 61.8926 56.1367C61.7441 55.918 61.5566 55.7461 61.3301 55.6211C61.1074 55.4961 60.8457 55.4336 60.5449 55.4336C60.248 55.4336 59.9863 55.4961 59.7598 55.6211C59.5371 55.7461 59.3496 55.918 59.1973 56.1367C59.0488 56.3516 58.9375 56.5996 58.8633 56.8809C58.7891 57.1582 58.752 57.4531 58.752 57.7656ZM65.8828 56.0137V61H64.7988V54.6602H65.8242L65.8828 56.0137ZM65.625 57.5898L65.1738 57.5723C65.1777 57.1387 65.2422 56.7383 65.3672 56.3711C65.4922 56 65.668 55.6777 65.8945 55.4043C66.1211 55.1309 66.3906 54.9199 66.7031 54.7715C67.0195 54.6191 67.3691 54.543 67.752 54.543C68.0645 54.543 68.3457 54.5859 68.5957 54.6719C68.8457 54.7539 69.0586 54.8867 69.2344 55.0703C69.4141 55.2539 69.5508 55.4922 69.6445 55.7852C69.7383 56.0742 69.7852 56.4277 69.7852 56.8457V61H68.6953V56.834C68.6953 56.502 68.6465 56.2363 68.5488 56.0371C68.4512 55.834 68.3086 55.6875 68.1211 55.5977C67.9336 55.5039 67.7031 55.457 67.4297 55.457C67.1602 55.457 66.9141 55.5137 66.6914 55.627C66.4727 55.7402 66.2832 55.8965 66.123 56.0957C65.9668 56.2949 65.8438 56.5234 65.7539 56.7812C65.668 57.0352 65.625 57.3047 65.625 57.5898ZM75.123 59.3184C75.123 59.1621 75.0879 59.0176 75.0176 58.8848C74.9512 58.748 74.8125 58.625 74.6016 58.5156C74.3945 58.4023 74.082 58.3047 73.6641 58.2227C73.3125 58.1484 72.9941 58.0605 72.709 57.959C72.4277 57.8574 72.1875 57.7344 71.9883 57.5898C71.793 57.4453 71.6426 57.2754 71.5371 57.0801C71.4316 56.8848 71.3789 56.6562 71.3789 56.3945C71.3789 56.1445 71.4336 55.9082 71.543 55.6855C71.6562 55.4629 71.8145 55.2656 72.0176 55.0938C72.2246 54.9219 72.4727 54.7871 72.7617 54.6895C73.0508 54.5918 73.373 54.543 73.7285 54.543C74.2363 54.543 74.6699 54.6328 75.0293 54.8125C75.3887 54.9922 75.6641 55.2324 75.8555 55.5332C76.0469 55.8301 76.1426 56.1602 76.1426 56.5234H75.0586C75.0586 56.3477 75.0059 56.1777 74.9004 56.0137C74.7988 55.8457 74.6484 55.707 74.4492 55.5977C74.2539 55.4883 74.0137 55.4336 73.7285 55.4336C73.4277 55.4336 73.1836 55.4805 72.9961 55.5742C72.8125 55.6641 72.6777 55.7793 72.5918 55.9199C72.5098 56.0605 72.4688 56.209 72.4688 56.3652C72.4688 56.4824 72.4883 56.5879 72.5273 56.6816C72.5703 56.7715 72.6445 56.8555 72.75 56.9336C72.8555 57.0078 73.0039 57.0781 73.1953 57.1445C73.3867 57.2109 73.6309 57.2773 73.9277 57.3438C74.4473 57.4609 74.875 57.6016 75.2109 57.7656C75.5469 57.9297 75.7969 58.1309 75.9609 58.3691C76.125 58.6074 76.207 58.8965 76.207 59.2363C76.207 59.5137 76.1484 59.7676 76.0312 59.998C75.918 60.2285 75.752 60.4277 75.5332 60.5957C75.3184 60.7598 75.0605 60.8887 74.7598 60.9824C74.4629 61.0723 74.1289 61.1172 73.7578 61.1172C73.1992 61.1172 72.7266 61.0176 72.3398 60.8184C71.9531 60.6191 71.6602 60.3613 71.4609 60.0449C71.2617 59.7285 71.1621 59.3945 71.1621 59.043H72.252C72.2676 59.3398 72.3535 59.5762 72.5098 59.752C72.666 59.9238 72.8574 60.0469 73.084 60.1211C73.3105 60.1914 73.5352 60.2266 73.7578 60.2266C74.0547 60.2266 74.3027 60.1875 74.502 60.1094C74.7051 60.0312 74.8594 59.9238 74.9648 59.7871C75.0703 59.6504 75.123 59.4941 75.123 59.3184ZM81.5098 59.5352V54.6602H82.5996V61H81.5625L81.5098 59.5352ZM81.7148 58.1992L82.166 58.1875C82.166 58.6094 82.1211 59 82.0312 59.3594C81.9453 59.7148 81.8047 60.0234 81.6094 60.2852C81.4141 60.5469 81.1582 60.752 80.8418 60.9004C80.5254 61.0449 80.1406 61.1172 79.6875 61.1172C79.3789 61.1172 79.0957 61.0723 78.8379 60.9824C78.584 60.8926 78.3652 60.7539 78.1816 60.5664C77.998 60.3789 77.8555 60.1348 77.7539 59.834C77.6562 59.5332 77.6074 59.1719 77.6074 58.75V54.6602H78.6914V58.7617C78.6914 59.0469 78.7227 59.2832 78.7852 59.4707C78.8516 59.6543 78.9395 59.8008 79.0488 59.9102C79.1621 60.0156 79.2871 60.0898 79.4238 60.1328C79.5645 60.1758 79.709 60.1973 79.8574 60.1973C80.3184 60.1973 80.6836 60.1094 80.9531 59.9336C81.2227 59.7539 81.416 59.5137 81.5332 59.2129C81.6543 58.9082 81.7148 58.5703 81.7148 58.1992ZM85.4297 52V61H84.3398V52H85.4297ZM89.8242 54.6602V55.4922H86.3965V54.6602H89.8242ZM87.5566 53.1191H88.6406V59.4297C88.6406 59.6445 88.6738 59.8066 88.7402 59.916C88.8066 60.0254 88.8926 60.0977 88.998 60.1328C89.1035 60.168 89.2168 60.1855 89.3379 60.1855C89.4277 60.1855 89.5215 60.1777 89.6191 60.1621C89.7207 60.1426 89.7969 60.127 89.8477 60.1152L89.8535 61C89.7676 61.0273 89.6543 61.0527 89.5137 61.0762C89.377 61.1035 89.2109 61.1172 89.0156 61.1172C88.75 61.1172 88.5059 61.0645 88.2832 60.959C88.0605 60.8535 87.8828 60.6777 87.75 60.4316C87.6211 60.1816 87.5566 59.8457 87.5566 59.4238V53.1191ZM94.834 59.916V56.6523C94.834 56.4023 94.7832 56.1855 94.6816 56.002C94.584 55.8145 94.4355 55.6699 94.2363 55.5684C94.0371 55.4668 93.791 55.416 93.498 55.416C93.2246 55.416 92.9844 55.4629 92.7773 55.5566C92.5742 55.6504 92.4141 55.7734 92.2969 55.9258C92.1836 56.0781 92.127 56.2422 92.127 56.418H91.043C91.043 56.1914 91.1016 55.9668 91.2188 55.7441C91.3359 55.5215 91.5039 55.3203 91.7227 55.1406C91.9453 54.957 92.2109 54.8125 92.5195 54.707C92.832 54.5977 93.1797 54.543 93.5625 54.543C94.0234 54.543 94.4297 54.6211 94.7812 54.7773C95.1367 54.9336 95.4141 55.1699 95.6133 55.4863C95.8164 55.7988 95.918 56.1914 95.918 56.6641V59.6172C95.918 59.8281 95.9355 60.0527 95.9707 60.291C96.0098 60.5293 96.0664 60.7344 96.1406 60.9062V61H95.0098C94.9551 60.875 94.9121 60.709 94.8809 60.502C94.8496 60.291 94.834 60.0957 94.834 59.916ZM95.0215 57.1562L95.0332 57.918H93.9375C93.6289 57.918 93.3535 57.9434 93.1113 57.9941C92.8691 58.041 92.666 58.1133 92.502 58.2109C92.3379 58.3086 92.2129 58.4316 92.127 58.5801C92.041 58.7246 91.998 58.8945 91.998 59.0898C91.998 59.2891 92.043 59.4707 92.1328 59.6348C92.2227 59.7988 92.3574 59.9297 92.5371 60.0273C92.7207 60.1211 92.9453 60.168 93.2109 60.168C93.543 60.168 93.8359 60.0977 94.0898 59.957C94.3438 59.8164 94.5449 59.6445 94.6934 59.4414C94.8457 59.2383 94.9277 59.041 94.9395 58.8496L95.4023 59.3711C95.375 59.5352 95.3008 59.7168 95.1797 59.916C95.0586 60.1152 94.8965 60.3066 94.6934 60.4902C94.4941 60.6699 94.2559 60.8203 93.9785 60.9414C93.7051 61.0586 93.3965 61.1172 93.0527 61.1172C92.623 61.1172 92.2461 61.0332 91.9219 60.8652C91.6016 60.6973 91.3516 60.4727 91.1719 60.1914C90.9961 59.9062 90.9082 59.5879 90.9082 59.2363C90.9082 58.8965 90.9746 58.5977 91.1074 58.3398C91.2402 58.0781 91.4316 57.8613 91.6816 57.6895C91.9316 57.5137 92.2324 57.3809 92.584 57.291C92.9355 57.2012 93.3281 57.1562 93.7617 57.1562H95.0215ZM98.707 56.0137V61H97.623V54.6602H98.6484L98.707 56.0137ZM98.4492 57.5898L97.998 57.5723C98.002 57.1387 98.0664 56.7383 98.1914 56.3711C98.3164 56 98.4922 55.6777 98.7188 55.4043C98.9453 55.1309 99.2148 54.9199 99.5273 54.7715C99.8438 54.6191 100.193 54.543 100.576 54.543C100.889 54.543 101.17 54.5859 101.42 54.6719C101.67 54.7539 101.883 54.8867 102.059 55.0703C102.238 55.2539 102.375 55.4922 102.469 55.7852C102.562 56.0742 102.609 56.4277 102.609 56.8457V61H101.52V56.834C101.52 56.502 101.471 56.2363 101.373 56.0371C101.275 55.834 101.133 55.6875 100.945 55.5977C100.758 55.5039 100.527 55.457 100.254 55.457C99.9844 55.457 99.7383 55.5137 99.5156 55.627C99.2969 55.7402 99.1074 55.8965 98.9473 56.0957C98.791 56.2949 98.668 56.5234 98.5781 56.7812C98.4922 57.0352 98.4492 57.3047 98.4492 57.5898ZM106.793 60.2266C107.051 60.2266 107.289 60.1738 107.508 60.0684C107.727 59.9629 107.906 59.8184 108.047 59.6348C108.188 59.4473 108.268 59.2344 108.287 58.9961H109.318C109.299 59.3711 109.172 59.7207 108.938 60.0449C108.707 60.3652 108.404 60.625 108.029 60.8242C107.654 61.0195 107.242 61.1172 106.793 61.1172C106.316 61.1172 105.9 61.0332 105.545 60.8652C105.193 60.6973 104.9 60.4668 104.666 60.1738C104.436 59.8809 104.262 59.5449 104.145 59.166C104.031 58.7832 103.975 58.3789 103.975 57.9531V57.707C103.975 57.2812 104.031 56.8789 104.145 56.5C104.262 56.1172 104.436 55.7793 104.666 55.4863C104.9 55.1934 105.193 54.9629 105.545 54.7949C105.9 54.627 106.316 54.543 106.793 54.543C107.289 54.543 107.723 54.6445 108.094 54.8477C108.465 55.0469 108.756 55.3203 108.967 55.668C109.182 56.0117 109.299 56.4023 109.318 56.8398H108.287C108.268 56.5781 108.193 56.3418 108.064 56.1309C107.939 55.9199 107.768 55.752 107.549 55.627C107.334 55.498 107.082 55.4336 106.793 55.4336C106.461 55.4336 106.182 55.5 105.955 55.6328C105.732 55.7617 105.555 55.9375 105.422 56.1602C105.293 56.3789 105.199 56.623 105.141 56.8926C105.086 57.1582 105.059 57.4297 105.059 57.707V57.9531C105.059 58.2305 105.086 58.5039 105.141 58.7734C105.195 59.043 105.287 59.2871 105.416 59.5059C105.549 59.7246 105.727 59.9004 105.949 60.0332C106.176 60.1621 106.457 60.2266 106.793 60.2266ZM112.318 60.3438L114.082 54.6602H115.242L112.699 61.9785C112.641 62.1348 112.562 62.3027 112.465 62.4824C112.371 62.666 112.25 62.8398 112.102 63.0039C111.953 63.168 111.773 63.3008 111.562 63.4023C111.355 63.5078 111.107 63.5605 110.818 63.5605C110.732 63.5605 110.623 63.5488 110.49 63.5254C110.357 63.502 110.264 63.4824 110.209 63.4668L110.203 62.5879C110.234 62.5918 110.283 62.5957 110.35 62.5996C110.42 62.6074 110.469 62.6113 110.496 62.6113C110.742 62.6113 110.951 62.5781 111.123 62.5117C111.295 62.4492 111.439 62.3418 111.557 62.1895C111.678 62.041 111.781 61.8359 111.867 61.5742L112.318 60.3438ZM111.023 54.6602L112.67 59.582L112.951 60.7246L112.172 61.123L109.84 54.6602H111.023ZM122.936 59.916V56.6523C122.936 56.4023 122.885 56.1855 122.783 56.002C122.686 55.8145 122.537 55.6699 122.338 55.5684C122.139 55.4668 121.893 55.416 121.6 55.416C121.326 55.416 121.086 55.4629 120.879 55.5566C120.676 55.6504 120.516 55.7734 120.398 55.9258C120.285 56.0781 120.229 56.2422 120.229 56.418H119.145C119.145 56.1914 119.203 55.9668 119.32 55.7441C119.438 55.5215 119.605 55.3203 119.824 55.1406C120.047 54.957 120.312 54.8125 120.621 54.707C120.934 54.5977 121.281 54.543 121.664 54.543C122.125 54.543 122.531 54.6211 122.883 54.7773C123.238 54.9336 123.516 55.1699 123.715 55.4863C123.918 55.7988 124.02 56.1914 124.02 56.6641V59.6172C124.02 59.8281 124.037 60.0527 124.072 60.291C124.111 60.5293 124.168 60.7344 124.242 60.9062V61H123.111C123.057 60.875 123.014 60.709 122.982 60.502C122.951 60.291 122.936 60.0957 122.936 59.916ZM123.123 57.1562L123.135 57.918H122.039C121.73 57.918 121.455 57.9434 121.213 57.9941C120.971 58.041 120.768 58.1133 120.604 58.2109C120.439 58.3086 120.314 58.4316 120.229 58.5801C120.143 58.7246 120.1 58.8945 120.1 59.0898C120.1 59.2891 120.145 59.4707 120.234 59.6348C120.324 59.7988 120.459 59.9297 120.639 60.0273C120.822 60.1211 121.047 60.168 121.312 60.168C121.645 60.168 121.938 60.0977 122.191 59.957C122.445 59.8164 122.646 59.6445 122.795 59.4414C122.947 59.2383 123.029 59.041 123.041 58.8496L123.504 59.3711C123.477 59.5352 123.402 59.7168 123.281 59.916C123.16 60.1152 122.998 60.3066 122.795 60.4902C122.596 60.6699 122.357 60.8203 122.08 60.9414C121.807 61.0586 121.498 61.1172 121.154 61.1172C120.725 61.1172 120.348 61.0332 120.023 60.8652C119.703 60.6973 119.453 60.4727 119.273 60.1914C119.098 59.9062 119.01 59.5879 119.01 59.2363C119.01 58.8965 119.076 58.5977 119.209 58.3398C119.342 58.0781 119.533 57.8613 119.783 57.6895C120.033 57.5137 120.334 57.3809 120.686 57.291C121.037 57.2012 121.43 57.1562 121.863 57.1562H123.123ZM129.832 54.6602H130.816V60.8652C130.816 61.4238 130.703 61.9004 130.477 62.2949C130.25 62.6895 129.934 62.9883 129.527 63.1914C129.125 63.3984 128.66 63.502 128.133 63.502C127.914 63.502 127.656 63.4668 127.359 63.3965C127.066 63.3301 126.777 63.2148 126.492 63.0508C126.211 62.8906 125.975 62.6738 125.783 62.4004L126.352 61.7559C126.617 62.0762 126.895 62.2988 127.184 62.4238C127.477 62.5488 127.766 62.6113 128.051 62.6113C128.395 62.6113 128.691 62.5469 128.941 62.418C129.191 62.2891 129.385 62.0977 129.521 61.8438C129.662 61.5938 129.732 61.2852 129.732 60.918V56.0547L129.832 54.6602ZM125.467 57.9004V57.7773C125.467 57.293 125.523 56.8535 125.637 56.459C125.754 56.0605 125.92 55.7188 126.135 55.4336C126.354 55.1484 126.617 54.9297 126.926 54.7773C127.234 54.6211 127.582 54.543 127.969 54.543C128.367 54.543 128.715 54.6133 129.012 54.7539C129.312 54.8906 129.566 55.0918 129.773 55.3574C129.984 55.6191 130.15 55.9355 130.271 56.3066C130.393 56.6777 130.477 57.0977 130.523 57.5664V58.1055C130.48 58.5703 130.396 58.9883 130.271 59.3594C130.15 59.7305 129.984 60.0469 129.773 60.3086C129.566 60.5703 129.312 60.7715 129.012 60.9121C128.711 61.0488 128.359 61.1172 127.957 61.1172C127.578 61.1172 127.234 61.0371 126.926 60.877C126.621 60.7168 126.359 60.4922 126.141 60.2031C125.922 59.9141 125.754 59.5742 125.637 59.1836C125.523 58.7891 125.467 58.3613 125.467 57.9004ZM126.551 57.7773V57.9004C126.551 58.2168 126.582 58.5137 126.645 58.791C126.711 59.0684 126.811 59.3125 126.943 59.5234C127.08 59.7344 127.254 59.9004 127.465 60.0215C127.676 60.1387 127.928 60.1973 128.221 60.1973C128.58 60.1973 128.877 60.1211 129.111 59.9688C129.346 59.8164 129.531 59.6152 129.668 59.3652C129.809 59.1152 129.918 58.8438 129.996 58.5508V57.1387C129.953 56.9238 129.887 56.7168 129.797 56.5176C129.711 56.3145 129.598 56.1348 129.457 55.9785C129.32 55.8184 129.15 55.6914 128.947 55.5977C128.744 55.5039 128.506 55.457 128.232 55.457C127.936 55.457 127.68 55.5195 127.465 55.6445C127.254 55.7656 127.08 55.9336 126.943 56.1484C126.811 56.3594 126.711 56.6055 126.645 56.8867C126.582 57.1641 126.551 57.4609 126.551 57.7773ZM135.094 61.1172C134.652 61.1172 134.252 61.043 133.893 60.8945C133.537 60.7422 133.23 60.5293 132.973 60.2559C132.719 59.9824 132.523 59.6582 132.387 59.2832C132.25 58.9082 132.182 58.498 132.182 58.0527V57.8066C132.182 57.291 132.258 56.832 132.41 56.4297C132.562 56.0234 132.77 55.6797 133.031 55.3984C133.293 55.1172 133.59 54.9043 133.922 54.7598C134.254 54.6152 134.598 54.543 134.953 54.543C135.406 54.543 135.797 54.6211 136.125 54.7773C136.457 54.9336 136.729 55.1523 136.939 55.4336C137.15 55.7109 137.307 56.0391 137.408 56.418C137.51 56.793 137.561 57.2031 137.561 57.6484V58.1348H132.826V57.25H136.477V57.168C136.461 56.8867 136.402 56.6133 136.301 56.3477C136.203 56.082 136.047 55.8633 135.832 55.6914C135.617 55.5195 135.324 55.4336 134.953 55.4336C134.707 55.4336 134.48 55.4863 134.273 55.5918C134.066 55.6934 133.889 55.8457 133.74 56.0488C133.592 56.252 133.477 56.5 133.395 56.793C133.312 57.0859 133.271 57.4238 133.271 57.8066V58.0527C133.271 58.3535 133.312 58.6367 133.395 58.9023C133.48 59.1641 133.604 59.3945 133.764 59.5938C133.928 59.793 134.125 59.9492 134.355 60.0625C134.59 60.1758 134.855 60.2324 135.152 60.2324C135.535 60.2324 135.859 60.1543 136.125 59.998C136.391 59.8418 136.623 59.6328 136.822 59.3711L137.479 59.8926C137.342 60.0996 137.168 60.2969 136.957 60.4844C136.746 60.6719 136.486 60.8242 136.178 60.9414C135.873 61.0586 135.512 61.1172 135.094 61.1172ZM139.91 56.0137V61H138.826V54.6602H139.852L139.91 56.0137ZM139.652 57.5898L139.201 57.5723C139.205 57.1387 139.27 56.7383 139.395 56.3711C139.52 56 139.695 55.6777 139.922 55.4043C140.148 55.1309 140.418 54.9199 140.73 54.7715C141.047 54.6191 141.396 54.543 141.779 54.543C142.092 54.543 142.373 54.5859 142.623 54.6719C142.873 54.7539 143.086 54.8867 143.262 55.0703C143.441 55.2539 143.578 55.4922 143.672 55.7852C143.766 56.0742 143.812 56.4277 143.812 56.8457V61H142.723V56.834C142.723 56.502 142.674 56.2363 142.576 56.0371C142.479 55.834 142.336 55.6875 142.148 55.5977C141.961 55.5039 141.73 55.457 141.457 55.457C141.188 55.457 140.941 55.5137 140.719 55.627C140.5 55.7402 140.311 55.8965 140.15 56.0957C139.994 56.2949 139.871 56.5234 139.781 56.7812C139.695 57.0352 139.652 57.3047 139.652 57.5898ZM147.996 60.2266C148.254 60.2266 148.492 60.1738 148.711 60.0684C148.93 59.9629 149.109 59.8184 149.25 59.6348C149.391 59.4473 149.471 59.2344 149.49 58.9961H150.521C150.502 59.3711 150.375 59.7207 150.141 60.0449C149.91 60.3652 149.607 60.625 149.232 60.8242C148.857 61.0195 148.445 61.1172 147.996 61.1172C147.52 61.1172 147.104 61.0332 146.748 60.8652C146.396 60.6973 146.104 60.4668 145.869 60.1738C145.639 59.8809 145.465 59.5449 145.348 59.166C145.234 58.7832 145.178 58.3789 145.178 57.9531V57.707C145.178 57.2812 145.234 56.8789 145.348 56.5C145.465 56.1172 145.639 55.7793 145.869 55.4863C146.104 55.1934 146.396 54.9629 146.748 54.7949C147.104 54.627 147.52 54.543 147.996 54.543C148.492 54.543 148.926 54.6445 149.297 54.8477C149.668 55.0469 149.959 55.3203 150.17 55.668C150.385 56.0117 150.502 56.4023 150.521 56.8398H149.49C149.471 56.5781 149.396 56.3418 149.268 56.1309C149.143 55.9199 148.971 55.752 148.752 55.627C148.537 55.498 148.285 55.4336 147.996 55.4336C147.664 55.4336 147.385 55.5 147.158 55.6328C146.936 55.7617 146.758 55.9375 146.625 56.1602C146.496 56.3789 146.402 56.623 146.344 56.8926C146.289 57.1582 146.262 57.4297 146.262 57.707V57.9531C146.262 58.2305 146.289 58.5039 146.344 58.7734C146.398 59.043 146.49 59.2871 146.619 59.5059C146.752 59.7246 146.93 59.9004 147.152 60.0332C147.379 60.1621 147.66 60.2266 147.996 60.2266ZM153.521 60.3438L155.285 54.6602H156.445L153.902 61.9785C153.844 62.1348 153.766 62.3027 153.668 62.4824C153.574 62.666 153.453 62.8398 153.305 63.0039C153.156 63.168 152.977 63.3008 152.766 63.4023C152.559 63.5078 152.311 63.5605 152.021 63.5605C151.936 63.5605 151.826 63.5488 151.693 63.5254C151.561 63.502 151.467 63.4824 151.412 63.4668L151.406 62.5879C151.438 62.5918 151.486 62.5957 151.553 62.5996C151.623 62.6074 151.672 62.6113 151.699 62.6113C151.945 62.6113 152.154 62.5781 152.326 62.5117C152.498 62.4492 152.643 62.3418 152.76 62.1895C152.881 62.041 152.984 61.8359 153.07 61.5742L153.521 60.3438ZM152.227 54.6602L153.873 59.582L154.154 60.7246L153.375 61.123L151.043 54.6602H152.227Z" fill="#FF823B"/>
</svg>
