<svg width="314" height="314" viewBox="0 0 314 314" fill="none" xmlns="http://www.w3.org/2000/svg">
<rect opacity="0.9" width="314" height="314" rx="20" fill="white"/>
<rect x="174" y="165" width="104" height="104" rx="14" fill="#FFEFE6"/>
<rect x="190" y="180" width="74" height="74" rx="14" fill="#FF7527"/>
<path d="M220.084 222.724H216.61C215.97 222.724 215.452 222.205 215.452 221.566V212.303C215.452 211.664 215.97 211.145 216.61 211.145H220.084C220.724 211.145 221.242 211.664 221.242 212.303V221.566C221.242 222.205 220.724 222.724 220.084 222.724ZM228.189 222.724H224.715C224.075 222.724 223.558 222.205 223.558 221.566V201.882C223.558 201.242 224.075 200.724 224.715 200.724H228.189C228.829 200.724 229.347 201.242 229.347 201.882V221.566C229.347 222.205 228.829 222.724 228.189 222.724ZM236.294 222.724H232.821C232.18 222.724 231.663 222.205 231.663 221.566V208.829C231.663 208.19 232.18 207.671 232.821 207.671H236.294C236.935 207.671 237.452 208.19 237.452 208.829V221.566C237.452 222.205 236.935 222.724 236.294 222.724Z" fill="white"/>
<rect x="40" y="165" width="104" height="104" rx="14" fill="#DBEEFF"/>
<rect x="55" y="180" width="74" height="74" rx="14" fill="#0085FF"/>
<rect x="174" y="43" width="104" height="104" rx="14" fill="#DEFFE5"/>
<rect x="188.867" y="58" width="74" height="74" rx="14" fill="#198B39"/>
<rect x="39" y="43" width="104" height="104" rx="14" fill="#FFF6D5"/>
<rect x="53.8669" y="58" width="74" height="74" rx="14" fill="#FFC90C"/>
<path d="M99.2984 89.3227H95.9984V87.1121C95.9984 85.893 95.0117 84.9016 93.7984 84.9016H87.1984C85.9851 84.9016 84.9984 85.893 84.9984 87.1121V89.3227H81.6984C80.4851 89.3227 79.4984 90.3141 79.4984 91.5332V94.849H101.498V91.5332C101.498 90.3141 100.512 89.3227 99.2984 89.3227ZM87.1984 87.1121H93.7984V89.3227H87.1984V87.1121ZM92.6984 98.1648H88.2984V95.9542H79.4984V103.691C79.4984 104.91 80.4851 105.902 81.6984 105.902H99.2984C100.512 105.902 101.498 104.91 101.498 103.691V95.9542H92.6984V98.1648Z" fill="white"/>
<path d="M100 211C100 208.832 96.337 207 92 207C87.663 207 84 208.832 84 211V213C84 215.168 87.663 217 92 217C96.337 217 100 215.168 100 213V211ZM92 224C87.663 224 84 222.168 84 220V223C84 225.168 87.663 227 92 227C96.337 227 100 225.168 100 223V220C100 222.168 96.337 224 92 224Z" fill="white"/>
<path d="M100 215C100 217.168 96.337 219 92 219C87.663 219 84 217.168 84 215V218C84 220.168 87.663 222 92 222C96.337 222 100 220.168 100 218V215Z" fill="white"/>
<path d="M236.222 107C237.754 107 239 105.754 239 104.222V84.7778C239 83.2458 237.754 82 236.222 82H216.778C215.246 82 214 83.2458 214 84.7778V104.222C214 105.754 215.246 107 216.778 107H236.222ZM223.101 91.2472L228.657 94.025L230.814 89.7125L233.299 90.9556L229.9 97.7542L224.344 94.9764L222.188 99.2889L219.703 98.0458L223.101 91.2472Z" fill="white"/>
</svg>
