<svg width="255" height="103" viewBox="0 0 255 103" fill="none" xmlns="http://www.w3.org/2000/svg">
<rect width="255" height="103" rx="10" fill="#F1FAF9"/>
<path d="M71.9344 38.0361C71.9344 40.1276 71.4561 41.7982 70.4993 43.0481C69.5425 44.2896 68.2584 44.9103 66.647 44.9103C65.1531 44.9103 63.9572 44.4229 63.0591 43.448V49.8598H60V31.1369H62.82L62.9458 32.5118C63.8439 31.4285 65.065 30.8869 66.6093 30.8869C68.271 30.8869 69.5719 31.5035 70.5119 32.7367C71.4602 33.9616 71.9344 35.6656 71.9344 37.8487V38.0361ZM68.8879 37.7737C68.8879 36.4238 68.6151 35.3531 68.0696 34.5615C67.5325 33.7699 66.7603 33.3742 65.7532 33.3742C64.5027 33.3742 63.6047 33.8866 63.0591 34.9115V40.9108C63.6131 41.9607 64.5195 42.4856 65.7784 42.4856C66.7519 42.4856 67.5115 42.0982 68.057 41.3233C68.6109 40.54 68.8879 39.3568 68.8879 37.7737Z" fill="#EC5D0C"/>
<path d="M82.5954 44.9103C80.6566 44.9103 79.083 44.3063 77.8745 43.0981C76.6743 41.8815 76.0742 40.265 76.0742 38.2486V37.8736C76.0742 36.5238 76.3344 35.3198 76.8547 34.2616C77.3835 33.195 78.122 32.3659 79.0704 31.7743C80.0188 31.1827 81.0763 30.8869 82.2429 30.8869C84.0977 30.8869 85.5286 31.4744 86.5357 32.6492C87.5513 33.8241 88.059 35.4864 88.059 37.6362V38.861H79.1585C79.2509 39.9776 79.6243 40.8608 80.279 41.5107C80.942 42.1607 81.7729 42.4856 82.7716 42.4856C84.1732 42.4856 85.3146 41.9232 86.1958 40.7983L87.845 42.3606C87.2995 43.1689 86.5693 43.798 85.6545 44.2479C84.7481 44.6895 83.7284 44.9103 82.5954 44.9103ZM82.2303 33.3242C81.391 33.3242 80.7112 33.6158 80.1909 34.1991C79.6789 34.7823 79.3516 35.5947 79.2089 36.6363H85.0376V36.4113C84.9705 35.3948 84.6977 34.6282 84.2194 34.1116C83.741 33.5866 83.0779 33.3242 82.2303 33.3242Z" fill="#EC5D0C"/>
<path d="M95.3461 31.1369L95.4342 32.6992C96.4413 31.491 97.7632 30.8869 99.3998 30.8869C102.236 30.8869 103.68 32.4993 103.73 35.7239V44.6604H100.671V35.8989C100.671 35.0406 100.482 34.4074 100.105 33.9991C99.7355 33.5825 99.127 33.3742 98.2793 33.3742C97.0456 33.3742 96.1266 33.9283 95.5223 35.0365V44.6604H92.4632V31.1369H95.3461Z" fill="#EC5D0C"/>
<path d="M108.386 37.7987C108.386 35.6989 108.882 34.0241 109.872 32.7742C110.871 31.516 112.192 30.8869 113.837 30.8869C115.39 30.8869 116.611 31.4244 117.501 32.4993L117.639 31.1369H120.396V44.2479C120.396 46.0227 119.838 47.4226 118.722 48.4474C117.614 49.4723 116.116 49.9848 114.228 49.9848C113.229 49.9848 112.251 49.7765 111.294 49.3598C110.346 48.9516 109.624 48.4141 109.129 47.7475L110.577 45.9227C111.517 47.0309 112.675 47.585 114.051 47.585C115.067 47.585 115.868 47.3101 116.456 46.7601C117.043 46.2185 117.337 45.4186 117.337 44.3604V43.448C116.456 44.4229 115.281 44.9103 113.812 44.9103C112.218 44.9103 110.913 44.2813 109.897 43.0231C108.89 41.7649 108.386 40.0234 108.386 37.7987ZM111.433 38.0611C111.433 39.4193 111.71 40.49 112.264 41.2733C112.826 42.0482 113.602 42.4356 114.593 42.4356C115.826 42.4356 116.741 41.9107 117.337 40.8608V34.9115C116.758 33.8866 115.852 33.3742 114.618 33.3742C113.611 33.3742 112.826 33.7699 112.264 34.5615C111.71 35.3531 111.433 36.5196 111.433 38.0611Z" fill="#EC5D0C"/>
<path d="M133.865 43.3355C132.967 44.3854 131.691 44.9103 130.038 44.9103C128.56 44.9103 127.44 44.4812 126.676 43.623C125.921 42.7648 125.543 41.5232 125.543 39.8984V31.1369H128.602V39.8609C128.602 41.5774 129.32 42.4356 130.755 42.4356C132.241 42.4356 133.244 41.9065 133.764 40.8483V31.1369H136.823V44.6604H133.94L133.865 43.3355Z" fill="#EC5D0C"/>
<path d="M145.256 44.6604H142.197V31.1369H145.256V44.6604ZM142.008 27.6248C142.008 27.1582 142.155 26.7707 142.448 26.4624C142.75 26.1541 143.178 26 143.732 26C144.286 26 144.714 26.1541 145.016 26.4624C145.319 26.7707 145.47 27.1582 145.47 27.6248C145.47 28.0831 145.319 28.4664 145.016 28.7747C144.714 29.0747 144.286 29.2246 143.732 29.2246C143.178 29.2246 142.75 29.0747 142.448 28.7747C142.155 28.4664 142.008 28.0831 142.008 27.6248Z" fill="#EC5D0C"/>
<path d="M153.5 31.1369L153.588 32.6992C154.595 31.491 155.917 30.8869 157.553 30.8869C160.39 30.8869 161.833 32.4993 161.884 35.7239V44.6604H158.825V35.8989C158.825 35.0406 158.636 34.4074 158.258 33.9991C157.889 33.5825 157.28 33.3742 156.433 33.3742C155.199 33.3742 154.28 33.9283 153.676 35.0365V44.6604H150.617V31.1369H153.5Z" fill="#EC5D0C"/>
<path d="M173.074 44.9103C171.135 44.9103 169.561 44.3063 168.353 43.0981C167.152 41.8815 166.552 40.265 166.552 38.2486V37.8736C166.552 36.5238 166.813 35.3198 167.333 34.2616C167.862 33.195 168.6 32.3659 169.549 31.7743C170.497 31.1827 171.554 30.8869 172.721 30.8869C174.576 30.8869 176.007 31.4744 177.014 32.6492C178.029 33.8241 178.537 35.4864 178.537 37.6362V38.861H169.637C169.729 39.9776 170.102 40.8608 170.757 41.5107C171.42 42.1607 172.251 42.4856 173.25 42.4856C174.651 42.4856 175.793 41.9232 176.674 40.7983L178.323 42.3606C177.778 43.1689 177.047 43.798 176.133 44.2479C175.226 44.6895 174.207 44.9103 173.074 44.9103ZM172.708 33.3242C171.869 33.3242 171.189 33.6158 170.669 34.1991C170.157 34.7823 169.83 35.5947 169.687 36.6363H175.516V36.4113C175.449 35.3948 175.176 34.6282 174.697 34.1116C174.219 33.5866 173.556 33.3242 172.708 33.3242Z" fill="#EC5D0C"/>
<path d="M190.621 40.9858C190.621 40.4442 190.394 40.0317 189.941 39.7484C189.496 39.4651 188.753 39.2152 187.713 38.9985C186.672 38.7819 185.803 38.5069 185.107 38.1736C183.579 37.4404 182.815 36.378 182.815 34.9865C182.815 33.8199 183.311 32.8451 184.301 32.0618C185.291 31.2786 186.55 30.8869 188.078 30.8869C189.706 30.8869 191.019 31.2869 192.018 32.0868C193.025 32.8867 193.529 33.9241 193.529 35.199H190.47C190.47 34.6157 190.251 34.1324 189.815 33.7491C189.379 33.3575 188.799 33.1617 188.078 33.1617C187.406 33.1617 186.857 33.3158 186.428 33.6241C186.009 33.9324 185.799 34.3449 185.799 34.8615C185.799 35.3281 185.996 35.6906 186.391 35.9489C186.785 36.2072 187.582 36.4696 188.783 36.7363C189.983 36.9946 190.923 37.307 191.603 37.6737C192.291 38.032 192.799 38.4652 193.126 38.9735C193.462 39.4818 193.629 40.0984 193.629 40.8233C193.629 42.0398 193.122 43.0272 192.106 43.7855C191.091 44.5354 189.76 44.9103 188.115 44.9103C186.999 44.9103 186.005 44.7104 185.132 44.3104C184.259 43.9105 183.579 43.3605 183.092 42.6606C182.606 41.9607 182.362 41.2066 182.362 40.3984H185.333C185.375 41.1149 185.648 41.6691 186.152 42.0607C186.655 42.444 187.322 42.6356 188.153 42.6356C188.959 42.6356 189.572 42.4856 189.991 42.1857C190.411 41.8774 190.621 41.4774 190.621 40.9858Z" fill="#EC5D0C"/>
<path d="M66.0844 68.0118L67.5914 67.3591V68.105C67.5914 69.0747 67.246 69.9014 66.5553 70.5851C65.8646 71.2688 65.0295 71.6107 64.05 71.6107C63.0705 71.6107 62.2322 71.2688 61.5352 70.5851C60.8383 69.9014 60.4898 69.0747 60.4898 68.105V61.821L61.9967 61.1683V68.0771C62.0093 68.6551 62.2102 69.1337 62.5995 69.5129C63.0014 69.9045 63.5037 70.1003 64.1065 70.1003C64.6339 70.1003 65.0954 69.8889 65.491 69.4663C65.8866 69.0436 66.0844 68.5588 66.0844 68.0118ZM60.3579 59.6299C60.1193 59.3875 60 59.0954 60 58.7535C60 58.4117 60.1193 58.1226 60.3579 57.8864C60.5965 57.644 60.8853 57.5228 61.2244 57.5228C61.5635 57.5228 61.8523 57.644 62.0909 57.8864C62.3295 58.1226 62.4488 58.4117 62.4488 58.7535C62.4488 59.0954 62.3295 59.3875 62.0909 59.6299C61.8523 59.8661 61.5635 59.9842 61.2244 59.9842C60.8853 59.9842 60.5965 59.8661 60.3579 59.6299Z" fill="#EC5D0C"/>
<path d="M87.4973 68.8696C87.4973 69.0747 87.5789 69.286 87.7422 69.5036C88.0436 69.9014 88.5239 70.1003 89.1832 70.1003C89.5851 70.1003 89.9398 70.007 90.2475 69.8206L90.8126 71.2284C90.3229 71.4833 89.7797 71.6107 89.1832 71.6107C88.2414 71.6107 87.4063 71.2688 86.6779 70.5851C86.1881 70.0878 85.9432 69.516 85.9432 68.8696C85.9432 68.8447 85.9432 68.8198 85.9432 68.795C85.9432 67.6326 86.5429 66.8091 87.7422 66.3242L91.5755 64.7672C91.5755 64.1767 91.3777 63.6826 90.9822 63.2848C90.5866 62.8807 90.0874 62.6787 89.4846 62.6787C88.9572 62.6787 88.4925 62.8745 88.0907 63.2661C87.7014 63.6453 87.5004 64.1239 87.4879 64.7019V64.8325L85.9809 65.4944V64.674C85.9809 63.8038 86.3577 62.9709 87.1111 62.1753C87.7516 61.504 88.5616 61.1683 89.5411 61.1683C90.5207 61.1683 91.3558 61.5102 92.0465 62.1939C92.7372 62.8776 93.0825 63.7043 93.0825 64.674V70.958L91.5755 71.6107V66.3988L88.4768 67.6482C87.8238 67.9527 87.4973 68.3599 87.4973 68.8696Z" fill="#EC5D0C"/>
<path d="M117.067 71.8065V70.9767C116.47 71.3993 115.786 71.6107 115.013 71.6107C114.034 71.6107 113.199 71.2688 112.508 70.5851C111.817 69.9014 111.472 69.0747 111.472 68.105V64.674C111.472 63.7043 111.817 62.8776 112.508 62.1939C113.199 61.5102 114.034 61.1683 115.013 61.1683C115.993 61.1683 116.831 61.5102 117.528 62.1939C118.225 62.8776 118.574 63.7043 118.574 64.674V71.8344C118.574 72.8041 118.225 73.6308 117.528 74.3145C116.831 74.9982 115.993 75.3401 115.013 75.3401C114.034 75.3401 113.199 74.9982 112.508 74.3145C112.069 73.8794 111.77 73.3884 111.613 72.8414L113.111 72.5244C113.211 72.7917 113.378 73.031 113.61 73.2423C114.043 73.6339 114.53 73.8297 115.07 73.8297C115.597 73.8297 116.062 73.6339 116.464 73.2423C116.853 72.8631 117.054 72.3845 117.067 71.8065ZM112.979 68.0771C112.979 68.6489 113.189 69.1275 113.61 69.5129C114.037 69.9045 114.524 70.1003 115.07 70.1003C115.597 70.1003 116.062 69.9045 116.464 69.5129C116.853 69.1337 117.054 68.6551 117.067 68.0771V64.7019C117.054 64.1239 116.853 63.6453 116.464 63.2661C116.062 62.8745 115.56 62.6787 114.957 62.6787C114.429 62.6787 113.968 62.8745 113.572 63.2661C113.183 63.6515 112.985 64.1115 112.979 64.646V64.7019V68.0771Z" fill="#EC5D0C"/>
<path d="M140.561 70.1003C141.089 70.1003 141.553 69.9045 141.955 69.5129C142.344 69.1337 142.545 68.6551 142.558 68.0771V67.9465L144.065 67.2846V68.105C144.065 68.9752 143.688 69.8081 142.935 70.6037C142.294 71.275 141.484 71.6107 140.505 71.6107C139.525 71.6107 138.69 71.2688 137.999 70.5851C137.309 69.9014 136.963 69.0747 136.963 68.105V64.674C136.963 63.7043 137.309 62.8776 137.999 62.1939C138.69 61.5102 139.525 61.1683 140.505 61.1683C141.446 61.1683 142.285 61.5102 143.019 62.1939C143.716 62.8403 144.065 63.667 144.065 64.674V65.5504L138.47 68.0118C138.47 68.6023 138.668 69.0995 139.064 69.5036C139.459 69.9014 139.958 70.1003 140.561 70.1003ZM140.448 62.6787C139.921 62.6787 139.459 62.8745 139.064 63.2661C138.668 63.6577 138.47 64.127 138.47 64.674C138.47 64.6864 138.47 64.6957 138.47 64.7019V66.3802L142.548 64.5807C142.517 64.0586 142.319 63.6204 141.955 63.2661C141.553 62.8745 141.051 62.6787 140.448 62.6787Z" fill="#EC5D0C"/>
<path d="M161.626 71.6107V63.7043C161.626 63.0082 161.877 62.4115 162.379 61.9142C162.881 61.417 163.487 61.1683 164.197 61.1683C164.931 61.1683 165.537 61.4107 166.015 61.8956C166.517 61.4107 167.12 61.1683 167.823 61.1683C168.576 61.1683 169.189 61.4107 169.66 61.8956C170.137 62.3866 170.379 62.9926 170.385 63.7136V70.958L168.878 71.6107L168.887 63.7509C168.887 63.4402 168.784 63.176 168.576 62.9584C168.369 62.7409 168.124 62.6321 167.842 62.6321C167.547 62.6321 167.295 62.7409 167.088 62.9584C166.875 63.1822 166.768 63.4433 166.768 63.7416V63.7509L166.759 70.958L165.252 71.6107L165.261 63.7509C165.261 63.4402 165.157 63.176 164.95 62.9584C164.743 62.7409 164.498 62.6321 164.216 62.6321C163.927 62.6321 163.676 62.7409 163.462 62.9584C163.249 63.176 163.142 63.4402 163.142 63.7509L163.132 70.958L161.626 71.6107Z" fill="#EC5D0C"/>
<path d="M191.562 70.1003C192.121 70.1003 192.583 69.9138 192.947 69.5409C193.311 69.1555 193.493 68.7266 193.493 68.2542C193.493 67.8378 193.311 67.4431 192.947 67.0701C192.576 66.6972 192.074 66.4952 191.44 66.4641C190.661 66.4268 190.043 66.1937 189.584 65.7648C189.139 65.3484 188.872 64.7517 188.784 63.9747C188.777 63.9188 188.774 63.8628 188.774 63.8069C188.806 63.1294 189.082 62.5265 189.603 61.9981C190.137 61.4449 190.787 61.1683 191.553 61.1683C192.363 61.1683 193.013 61.4449 193.502 61.9981C193.829 62.3711 194.083 62.8652 194.265 63.4806L192.9 64.0773C192.799 63.667 192.645 63.3407 192.438 63.0983C192.206 62.8435 191.908 62.716 191.543 62.716C191.198 62.716 190.897 62.8435 190.639 63.0983C190.401 63.3345 190.281 63.6018 190.281 63.9001C190.281 63.9126 190.281 63.9281 190.281 63.9467C190.281 64.2451 190.394 64.503 190.62 64.7206C190.828 64.9257 191.129 65.05 191.525 65.0935C192.617 65.2178 193.455 65.5504 194.039 66.0911C194.68 66.7003 195 67.4431 195 68.3195V68.3474C194.987 69.1803 194.677 69.9262 194.068 70.5851C193.427 71.2688 192.592 71.6107 191.562 71.6107C190.576 71.6107 189.766 71.275 189.132 70.6037C188.423 69.8641 188.046 69.0312 188.002 68.105L187.993 68.0118L189.5 67.3591L189.509 68.0771C189.515 68.6551 189.713 69.1337 190.102 69.5129C190.504 69.9045 190.991 70.1003 191.562 70.1003Z" fill="#EC5D0C"/>
</svg>
